<?xml version="1.0" encoding="utf-8"?>
<!-- Generator: Adobe Illustrator 27.5.0, SVG Export Plug-In . SVG Version: 6.00 Build 0)  -->
<svg version="1.1" id="Layer_1" xmlns="http://www.w3.org/2000/svg" xmlns:xlink="http://www.w3.org/1999/xlink" x="0px" y="0px"
	 viewBox="0 0 3100 2000" style="enable-background:new 0 0 3100 2000;" xml:space="preserve">
<rect style="fill:#FFFFFF;" width="3100" height="2000"/>
<g>
	<path style="fill:#C5F1FF;" d="M2915.976,1586.617c-0.204,1.54-0.436,3.052-0.654,4.579c-0.027,0.177-0.041,0.327-0.068,0.477
		c-23.425,155.719-157.382,270.979-315.051,270.979H410.072c-143.932,0-255.717-126.721-236.257-269.004
		c0.095-0.709,0.204-1.445,0.3-2.167c0.055-0.354,0.109-0.695,0.163-1.036c0.177-1.267,0.382-2.548,0.586-3.829
		c7.754-48.745,25.783-101.933,58.911-158.568c5.941-10.152,11.338-20.427,16.244-30.812
		c16.217-34.314,27.077-69.854,34.573-106.607c35.486-173.667-3.843-374.316,94.151-600.025
		c14.459-33.292,29.83-63.681,45.938-91.371c178.913-307.705,447.045-283.599,535.909-252.051
		c96.822,34.409,175.125,90.308,342.033,4.306c166.88-86.016,627.389-313.456,932.342-165.095
		c304.953,148.374,177.878,462.866,278.952,574.556c49.712,54.905,92.012,82.118,133.575,108.269
		c67.769,42.613,133.548,82.391,226.118,234.731c24.243,39.874,40.937,107.084,49.085,186.681
		c3.448,33.7,5.369,69.609,5.656,106.607C2928.854,1459.106,2924.847,1524.013,2915.976,1586.617z"/>
	<g>
		<g>
			<g>
				<path style="fill:#FF6861;" d="M1466.595,658.924v766.643h-204.994l27.499-472.485l-224.16,115.83
					c0,0,124.996-299.991,159.995-334.989c16.749-16.75,72.764-34.632,126.663-48.732c9-2.367,17.966-4.617,26.666-6.733
					C1426.28,666.724,1466.595,658.924,1466.595,658.924z"/>
			</g>
		</g>
		<g>
			<g>
				<path style="fill:#FF6861;" d="M1735.754,1311.404l5.833,114.163l-177.494,0.833l-4.167-767.476c0,0,22.033,6.483,51.665,16.183
					c8.383,2.75,17.383,5.75,26.666,8.95c52.732,18.083,114.496,42.065,124.996,58.198
					c30.866,47.398,142.496,475.818,142.496,475.818L1735.754,1311.404z"/>
			</g>
		</g>
		<g>
			<g>
				<path style="fill:#EF4B4B;" d="M1917.358,1225.553c0,0,21.695-15.946,7.362-38.059c-14.333-22.113-61.77-39.098-75.873-33.725
					c-14.103,5.373-50.794,16.594-50.794,16.594s34.457,59.942,36.488,61.137
					C1836.573,1232.697,1917.358,1225.553,1917.358,1225.553z"/>
			</g>
		</g>
		<g>
			<g>
				<path style="fill:#EF4B4B;" d="M1921.666,1208.944c0,0,30.207,83.422-1.947,105.52c-32.153,22.097-91.907,30.682-117.059,19.978
					s-42.409-44.11-39.6-46.559C1765.87,1285.434,1921.666,1208.944,1921.666,1208.944z"/>
			</g>
		</g>
		<g>
			<g>
				<polygon style="fill:#FF6861;" points="1466.595,658.924 1574.925,672.257 1711.588,1277.238 1564.926,1425.567 
					1466.595,1425.567 1376.598,770.587 				"/>
			</g>
		</g>
		<g>
			<g>
				<path style="fill:#EF4B4B;" d="M1019.943,1103.91c0,0-24.999-10-16.666-34.999c8.333-24.999,49.998-53.332,64.998-51.665
					c15,1.667,53.332,3.333,53.332,3.333s-18.333,66.665-19.999,68.331C1099.94,1090.577,1019.943,1103.91,1019.943,1103.91z"/>
			</g>
		</g>
		<g>
			<g>
				<path style="fill:#EF4B4B;" d="M1011.61,1088.911c0,0-8.333,88.331,28.333,101.664c36.665,13.333,96.664,6.666,118.329-10
					c21.666-16.666,29.999-53.332,26.666-54.998C1181.604,1123.91,1011.61,1088.911,1011.61,1088.911z"/>
			</g>
		</g>
		<g>
			<g>
				<path style="fill:#FFFFFF;" d="M1723.903,1121.737l-85.647-181.155V684.057c-9.283-3.2-18.283-6.2-26.666-8.95v265.475h-88.331
					h-19.999h-124.996V678.457c-8.7,2.265-17.666,4.672-26.666,7.204v273.254h4.665l-76.979,162.823l-17.683,303.829h241.659h19.999
					h218.326L1723.903,1121.737z"/>
			</g>
		</g>
		<g>
			<g>
				<polygon points="1263.265,1425.667 1259.938,1425.465 1278.271,1122.141 1288.268,825.528 1291.6,825.642 1281.6,1122.299 				
					"/>
			</g>
		</g>
		<g>
			<g>
				
					<rect x="1280.418" y="843.344" transform="matrix(0.9783 -0.207 0.207 0.9783 -152.2822 284.2178)" width="3.334" height="52.988"/>
			</g>
		</g>
		<g>
			<g>
				
					<rect x="1724.921" y="825.21" transform="matrix(0.9988 -0.0499 0.0499 0.9988 -54.0544 87.6261)" width="3.332" height="600.731"/>
			</g>
		</g>
		<g>
			<g>
				
					<rect x="1698.641" y="854.751" transform="matrix(0.2852 -0.9585 0.9585 0.2852 408.9465 2261.1589)" width="43.476" height="3.333"/>
			</g>
		</g>
		<g>
			<g>
				<path d="M1087.745,1019.353l-3.055-1.331c0.79-1.813,79.379-181.889,106.438-232.293c27.748-51.693,34.736-59.616,62.308-70.657
					c27.317-10.939,139.599-41.828,140.73-42.139l0.884,3.213c-1.129,0.311-113.231,31.15-140.375,42.022
					c-26.852,10.752-33.083,17.859-60.61,69.137C1167.07,837.591,1088.536,1017.542,1087.745,1019.353z"/>
			</g>
		</g>
		<g>
			<g>
				<path d="M1000.123,1082.024c-1.423-8.473,1.786-17.89,9.536-27.992c15.901-20.724,45.675-37.609,55.123-38.515
					c16.644-1.602,60.163,3.2,62.007,3.405l-0.368,3.314c-0.449-0.051-45.012-4.964-61.322-3.401
					c-8.724,0.836-37.673,17.516-52.795,37.225c-7.165,9.339-10.158,17.888-8.894,25.411L1000.123,1082.024z"/>
			</g>
		</g>
		<g>
			<g>
				<path d="M1840.034,982.655c-0.617-2.031-61.802-203.444-72.021-227.477c-9.964-23.437-43.816-36.067-44.157-36.19
					l-127.907-47.186l1.154-3.128l127.903,47.184c1.442,0.527,35.541,13.24,46.075,38.015
					c10.288,24.198,69.622,219.511,72.143,227.815L1840.034,982.655z"/>
			</g>
		</g>
		<g>
			<g>
				<polygon points="1725.083,1126.293 1636.59,940.959 1636.59,685.589 1639.923,685.589 1639.923,940.204 1728.091,1124.858 				
					"/>
			</g>
		</g>
		<g>
			<g>
				<polygon points="1613.257,942.248 1430.169,942.248 1430.169,938.915 1609.924,938.915 1609.924,829.968 1613.257,829.968 				
					"/>
			</g>
		</g>
		<g>
			<g>
				<rect x="1376.598" y="678.457" width="3.333" height="210.275"/>
			</g>
		</g>
		<path style="fill:#49263E;" d="M1260.748,1107.57c0,0-26.711,177.663,205.474,218.173
			c230.103,40.146,288.886-123.899,288.886-123.899L1260.748,1107.57z"/>
		
			<ellipse transform="matrix(0.1854 -0.9827 0.9827 0.1854 96.5886 2420.8833)" style="fill:#603655;" cx="1508.482" cy="1152.183" rx="65.833" ry="251.84"/>
		<path style="fill:#FEC786;" d="M1346.022,1174.22c0,0,99.921-20.753,202.447-7.997c102.526,12.756,201.872,42.935,201.872,42.935
			s-18.19,16.854-73.32,21.625C1604.409,1237.067,1479.669,1228.891,1346.022,1174.22z"/>
		<g>
			<path style="fill:#FFFFFF;" d="M1419.653,1218.337c10.045,8.048,22.818,11.112,35.335,8.566l0.014,0.057l1.991-0.503l0,0
				l1.991-0.502l-0.014-0.057c12.226-3.697,22.016-12.455,27.04-24.305c5.293-12.484,4.454-26.387-2.302-38.144l-52.225-90.882
				l-10.533,2.658l-3.983,1.005l-10.532,2.658l-2.854,104.78C1403.213,1197.223,1409.071,1209.859,1419.653,1218.337z
				 M1480.148,1165.496c6.11,10.632,6.868,23.204,2.081,34.494c-3.105,7.323-8.221,13.345-14.677,17.49
				c0.377-0.615,0.744-1.266,1.092-1.963c5.495-10.99,4.425-26.945-3.182-47.423c-14.546-39.158-33.043-78.412-38.657-90.109
				l2.668-0.673L1480.148,1165.496z M1422.739,1079.011c5.099,10.592,24.048,50.61,38.872,90.514
				c8.917,24.004,6.786,37.185,3.428,44.015c-2.228,4.531-5.215,6.887-7.161,8.024l-35.921-142.356L1422.739,1079.011z
				 M1453.895,1222.57c-2.253-0.078-6-0.734-10.111-3.666c-6.197-4.419-14.326-15.012-17.865-40.372
				c-5.884-42.159-8.189-86.378-8.726-98.121l0.782-0.197L1453.895,1222.57z M1407.689,1183.78l2.769-101.669l2.668-0.673
				c0.607,12.96,2.949,56.291,8.723,97.662c3.02,21.636,9.647,36.189,19.698,43.255c0.638,0.448,1.269,0.847,1.893,1.21
				c-7.651-0.586-15.01-3.459-21.218-8.433C1412.652,1207.465,1407.355,1196.038,1407.689,1183.78z"/>
			<g>
				<path style="fill:#49263E;" d="M1433.46,1077.398l-26.471,6.68c-2.373,0.599-4.783-0.84-5.382-3.213l0,0
					c-0.599-2.373,0.84-4.783,3.213-5.382l26.471-6.68c2.373-0.599,4.783,0.84,5.381,3.213l0,0
					C1437.272,1074.39,1435.834,1076.799,1433.46,1077.398z"/>
			</g>
			<g>
				
					<rect x="1404.98" y="1011.544" transform="matrix(-0.9696 0.2447 -0.2447 -0.9696 3034.8186 1712.0103)" style="fill:#49263E;" width="12.199" height="65.898"/>
			</g>
			<g>
				<path style="fill:#4CB7D8;" d="M1368.385,870.006L1368.385,870.006c10.444-2.635,20.929,4.148,22.806,14.754l23.237,131.31
					c0.927,5.236-2.349,10.299-7.505,11.6l0,0c-5.224,1.318-10.568-1.679-12.166-6.825l-39.549-127.351
					C1352.053,883.335,1358.07,872.609,1368.385,870.006z"/>
			</g>
		</g>
		<g>
			<g>
				<g>
					<g>
						<path style="fill:#FE9F73;" d="M1429.339,948.654c0,0,13.324-8.807,3.914-19.25c0,0,14.743-9.544-3.965-22.103
							c0,0,4.988-8.336-2.868-15.462c-7.857-7.127-31.476-14.657-35.795-14.588c-4.319,0.07-61.541,13.607-61.541,13.607
							s-2.509,0.512-6.426,1.264l-32.074,122.799c26.582-3.914,52.398-9.254,60.332-15.976
							c16.392-13.889,49.972-24.99,71.954-31.274C1422.87,967.672,1437.114,960.022,1429.339,948.654z"/>
					</g>
				</g>
				<g>
					<g>
						<g>
							<g>
								<g>
									<path style="fill:#F07162;" d="M1373.907,900.952c0.289,0.168,0.641,0.233,0.995,0.157
										c0.143-0.031,14.397-3.063,19.838-2.58c4.392,0.39,24.227,6.751,34.102,10.06c0.723,0.243,1.508-0.138,1.754-0.849
										c0.246-0.712-0.146-1.486-0.862-1.726c-1.179-0.396-28.929-9.679-34.744-10.195c-5.862-0.52-20.072,2.502-20.675,2.631
										c-0.746,0.16-1.219,0.884-1.057,1.618C1373.343,900.454,1373.587,900.766,1373.907,900.952z"/>
								</g>
							</g>
						</g>
					</g>
				</g>
				<g>
					<g>
						<g>
							<g>
								<g>
									<path style="fill:#F07162;" d="M1380.677,926.707c0.299,0.173,0.663,0.237,1.026,0.15
										c0.113-0.027,11.365-2.677,18.316-2.555c6.977,0.123,32.644,6.36,32.903,6.423c0.741,0.181,1.49-0.264,1.674-0.994
										c0.183-0.73-0.27-1.465-1.01-1.648c-1.067-0.26-26.232-6.374-33.518-6.502c-7.306-0.128-18.538,2.518-19.013,2.63
										c-0.743,0.176-1.199,0.911-1.02,1.641C1380.126,926.226,1380.366,926.527,1380.677,926.707z"/>
								</g>
							</g>
						</g>
					</g>
				</g>
				<g>
					<g>
						<g>
							<g>
								<g>
									<path style="fill:#F07162;" d="M1383.976,946.084c0.314,0.182,0.701,0.242,1.08,0.136
										c0.074-0.021,7.535-2.087,14.609-2.189c7.069-0.102,29.083,5.873,29.305,5.934c0.735,0.2,1.497-0.224,1.701-0.948
										c0.203-0.725-0.232-1.477-0.964-1.674c-0.921-0.251-22.62-6.14-30.083-6.033c-7.448,0.107-15.008,2.204-15.325,2.293
										c-0.734,0.206-1.16,0.958-0.951,1.681C1383.45,945.634,1383.681,945.913,1383.976,946.084z"/>
								</g>
							</g>
						</g>
					</g>
				</g>
			</g>
			<g>
				<g>
					<path style="fill:#FE9F73;" d="M1049.052,1115.181c-4.087-26.468,8.429-52.762,30.897-67.337
						c18.451-11.969,44.402-29.037,68.323-45.597c43.332-29.999,133.329-76.664,148.329-94.997
						c15-18.333,49.998-19.999,49.998-19.999l-3.333,109.997c0,0-21.666,8.333-34.999,19.999
						c-13.333,11.666-78.331,158.328-178.328,159.995C1075.369,1178.151,1053.866,1146.351,1049.052,1115.181z"/>
				</g>
			</g>
		</g>
		<polygon style="fill:#49263E;" points="1401.079,1194.395 1443.44,1206.881 1414.136,1252.255 		"/>
		<g>
			<g>
				<g>
					<path style="fill:#FE9F73;" d="M1589.925,1222.24c0,0,178.328-49.998,224.993-53.332c46.665-3.333,93.33,19.999,93.33,71.664
						s-76.664,78.331-204.994,69.998c-128.329-8.333-128.329-8.333-128.329-8.333L1589.925,1222.24z"/>
				</g>
			</g>
			<g>
				<g>
					<g>
						<path style="fill:#FE9F73;" d="M1581.592,1302.237c-20.833,0.85-57.348,0-70.881-3.333c-0.017,0-0.017,0-0.033-0.017
							c-1.283-0.3-2.366-0.65-3.2-1.017c-0.033,0-0.083-0.016-0.117-0.033c-0.233-0.116-0.45-0.233-0.633-0.333
							c-3.467-1.967-7.6-3.717-12.133-5.233c-13.483-6.75-26.599-15.516-31.332-16.699c-4.375-1.094-13.098,2.14-18.594,4.493
							c-4.576,1.959-10.071,0.686-12.933-3.387c-1.663-2.366-2.424-5.552-0.606-9.689c0,0-12.883-5.416-6.483-15.933
							c0,0-14.233-5.8-0.184-19.649c0,0-5.65-6.35-0.05-13.75c5.6-7.416,24.699-17.716,28.416-18.366
							c3.733-0.633,55.132,1.717,55.132,1.717s61.814,14.549,65.298,14.566L1581.592,1302.237z"/>
					</g>
				</g>
				<g>
					<g>
						<g>
							<g>
								<g>
									<path style="fill:#F07162;" d="M1471.058,1216.966c-0.221,0.191-0.513,0.304-0.83,0.297
										c-0.128-0.003-12.877-0.298-17.478,1c-3.714,1.048-19.739,9.737-27.694,14.185c-0.582,0.326-1.319,0.126-1.646-0.445
										c-0.328-0.572-0.116-1.302,0.462-1.625c0.949-0.531,23.307-13.017,28.224-14.404c4.956-1.398,17.667-1.105,18.206-1.092
										c0.668,0.016,1.192,0.562,1.172,1.22C1471.462,1216.447,1471.303,1216.755,1471.058,1216.966z"/>
								</g>
							</g>
						</g>
					</g>
				</g>
				<g>
					<g>
						<g>
							<g>
								<g>
									<path style="fill:#F07162;" d="M1469.415,1240.213c-0.229,0.197-0.531,0.311-0.858,0.296
										c-0.102-0.005-10.208-0.458-16.165,0.774c-5.98,1.238-27.041,10.766-27.253,10.862c-0.608,0.276-1.324,0.014-1.6-0.583
										c-0.276-0.598-0.005-1.304,0.601-1.581c0.876-0.397,21.524-9.737,27.769-11.029c6.262-1.295,16.35-0.843,16.777-0.823
										c0.667,0.031,1.179,0.589,1.143,1.246C1469.811,1239.71,1469.653,1240.007,1469.415,1240.213z"/>
								</g>
							</g>
						</g>
					</g>
				</g>
				<g>
					<g>
						<g>
							<g>
								<g>
									<path style="fill:#F07162;" d="M1469.722,1257.412c-0.241,0.208-0.564,0.322-0.907,0.292
										c-0.067-0.006-6.818-0.573-12.918,0.488c-6.096,1.06-24.057,9.77-24.238,9.858c-0.6,0.292-1.324,0.05-1.617-0.539
										c-0.292-0.59-0.04-1.307,0.557-1.596c0.751-0.365,18.456-8.95,24.891-10.069c6.423-1.117,13.263-0.54,13.551-0.515
										c0.665,0.058,1.153,0.636,1.09,1.291C1470.101,1256.939,1469.948,1257.217,1469.722,1257.412z"/>
								</g>
							</g>
						</g>
					</g>
				</g>
			</g>
			<g>
				<g>
					<path style="fill:#FE9F73;" d="M1664.043,1202.232c0,0-60.785,11.675-77.451,13.342c-16.666,1.667-48.519-3.734-48.519-3.734
						l-9.813,33.733l49.998,53.332L1664.043,1202.232z"/>
				</g>
			</g>
		</g>
		<path style="fill:#FE9F73;" d="M1399.226,673.459c0,0,19.495,53.626,90.376,56.121s99.99-61.544,99.99-61.544
			s-64.603-29.067-150.008-6.485L1399.226,673.459z"/>
		<g>
			<g>
				<g>
					<g>
						<g>
							<g>
								<g>
									<g>
										<path style="fill:#FE9F73;" d="M1380.516,475.082l17.042,112.63c0,0,4.174,38.312,38.207,38.031l1.466,51.737
											c0.545,19.231,14.57,35.599,33.573,38.597c9.292,1.466,20.187,1.914,32.191,0.098
											c38.072-5.761,54.374-37.435,55.386-52.192c1.012-14.757-18.826-81.529-18.826-81.529l-3.912-33.694l-23.983-129.218
											L1380.516,475.082z"/>
									</g>
								</g>
							</g>
						</g>
					</g>
				</g>
				<g>
					<g>
						<g>
							<g>
								<g>
									<g>
										<path d="M1480.956,517.49c0.396-0.06,0.769-0.267,1.032-0.609c0.54-0.701,0.409-1.708-0.293-2.249
											c-0.252-0.195-25.448-19.212-42.955-0.131c-0.599,0.652-0.556,1.667,0.097,2.266c0.653,0.602,1.667,0.557,2.267-0.097
											c15.514-16.905,37.698-0.213,38.635,0.505C1480.098,517.451,1480.539,517.552,1480.956,517.49z"/>
									</g>
								</g>
							</g>
						</g>
					</g>
				</g>
				<g>
					<g>
						<g>
							<g>
								<g>
									<g>
										<path d="M1414.123,517.866c0.444-0.067,0.858-0.32,1.116-0.73c0.473-0.748,0.251-1.738-0.498-2.213
											c-0.723-0.458-17.814-11.11-26.139-1.458c-0.579,0.671-0.505,1.683,0.166,2.261c0.671,0.581,1.683,0.506,2.263-0.166
											c6.522-7.56,21.841,1.978,21.994,2.076C1413.365,517.851,1413.754,517.922,1414.123,517.866z"/>
									</g>
								</g>
							</g>
						</g>
					</g>
				</g>
				<g>
					<g>
						<g>
							<g>
								<g>
									<g>
										<path d="M1449.846,528.754c0.398,2.628,2.851,4.437,5.479,4.039c2.628-0.398,4.437-2.851,4.039-5.479
											s-2.851-4.437-5.479-4.039C1451.257,523.673,1449.449,526.126,1449.846,528.754z"/>
									</g>
								</g>
							</g>
						</g>
					</g>
				</g>
				<g>
					<g>
						<g>
							<g>
								<g>
									<g>
										<path d="M1398.54,531.649c0.398,2.628,2.851,4.437,5.479,4.039c2.628-0.398,4.437-2.851,4.039-5.479
											c-0.397-2.628-2.851-4.437-5.479-4.039C1399.951,526.568,1398.142,529.021,1398.54,531.649z"/>
									</g>
								</g>
							</g>
						</g>
					</g>
				</g>
				<g>
					<g>
						<g>
							<g>
								<g>
									<g>
										<path d="M1508.171,426.47l-8.46,41.281c0,0-88.141,43.762-134.986,12.989s-36.843-50.473-27.557-70.833
											c4.578-10.037,30.216-32.938,67.459-22.723c20.329,5.576,30.598-21.794,54.727-12.464
											c24.129,9.33,53.652,27.345,52.036,36.483C1509.774,420.34,1508.171,426.47,1508.171,426.47z"/>
									</g>
								</g>
							</g>
						</g>
					</g>
				</g>
				<g>
					<g>
						<g>
							<g>
								<g>
									<g>
										<path d="M1504.164,410.849c0,0,36.357-7.304,51.914,26.401c15.557,33.705,4.602,54.248,5.84,64.811
											c1.238,10.563,19.086,80.341-31.458,82.58l-31.142-115.003l10.263-49.215L1504.164,410.849z"/>
									</g>
								</g>
							</g>
						</g>
					</g>
				</g>
				<g>
					<g>
						<g>
							<g>
								<g>
									<g>
										
											<ellipse transform="matrix(0.8826 -0.4702 0.4702 0.8826 -64.8098 774.1781)" style="fill:#FE9F73;" cx="1517.456" cy="516.835" rx="28.879" ry="28.879"/>
									</g>
								</g>
							</g>
						</g>
					</g>
				</g>
				<g>
					<g>
						<g>
							<g>
								<g>
									<g>
										<path style="fill:#F07162;" d="M1522.216,534.013c5.932-0.898,9.219-5.956,9.849-10.608
											c0.745-5.504-1.798-10.356-6.479-12.365c-6.918-2.969-12.269,0.418-14.914,2.794c0.742-3.427,2.318-6.079,4.701-7.902
											c5.157-3.948,12.476-2.748,12.55-2.736c0.436,0.077,0.851-0.217,0.927-0.655c0.075-0.436-0.217-0.85-0.653-0.926
											c-0.327-0.057-8.065-1.334-13.788,3.035c-3.303,2.522-5.225,6.394-5.711,11.505l-0.273,2.867l1.716-2.313
											c0.242-0.328,6.034-7.958,14.812-4.193c4.861,2.085,6.013,7.055,5.522,10.675c-0.509,3.76-3.04,8.411-8.493,9.237
											c-0.055,0.008-0.107,0.011-0.164,0.023c-0.433,0.065-0.734,0.466-0.674,0.902c0.06,0.438,0.464,0.746,0.904,0.686
											C1522.103,534.028,1522.161,534.021,1522.216,534.013z"/>
									</g>
								</g>
							</g>
						</g>
					</g>
				</g>
				<g>
					<g>
						<g>
							<g>
								<g>
									<g>
										<path style="fill:#F07162;" d="M1508.101,581.714c0,0,7.408,64.062-71.256,82.188l-1.081-38.159
											C1435.764,625.743,1488.948,628.303,1508.101,581.714z"/>
									</g>
								</g>
							</g>
						</g>
					</g>
				</g>
				<g>
					<g>
						<g>
							<g>
								<g>
									<g>
										<path style="fill:#F07162;" d="M1437.916,563.396c0.333-0.051,0.611-0.308,0.671-0.658
											c0.075-0.438-0.219-0.851-0.655-0.926l-16.696-2.852l-0.638-38.18c-0.008-0.443-0.372-0.796-0.815-0.788
											c-0.449-0.003-0.797,0.373-0.789,0.815l0.66,39.511l18.008,3.075C1437.747,563.408,1437.833,563.408,1437.916,563.396z"/>
									</g>
								</g>
							</g>
						</g>
					</g>
				</g>
				<g>
					<g>
						<g>
							<g>
								<g>
									<g>
										<path style="fill:#FBFDFC;" d="M1452.569,576.982c-0.503-0.021-31.533,3.933-31.533,3.933s5.816,12.201,17.354,10.762
											C1449.927,590.237,1452.569,576.982,1452.569,576.982z"/>
									</g>
								</g>
							</g>
						</g>
					</g>
				</g>
			</g>
			<path d="M1486.475,471.414c0,0,7.74,60.007,9.298,63.069c1.558,3.063,10.136-1.494,10.136-1.494s-9.504-37.268,7.226-44.709
				c16.73-7.441-2.229-32.263-2.229-32.263L1486.475,471.414z"/>
		</g>
	</g>
	<path style="fill:#FEC786;" d="M2915.976,1586.617c-0.204,1.54-0.436,3.052-0.654,4.579c-0.027,0.177-0.041,0.327-0.068,0.477
		c-23.425,155.719-157.382,270.979-315.051,270.979H410.072c-143.932,0-255.717-126.721-236.257-269.004
		c0.095-0.709,0.204-1.445,0.3-2.167c0.055-0.354,0.109-0.695,0.163-1.036c0.177-1.267,0.382-2.548,0.586-3.829
		c7.754-48.745,25.783-101.933,58.911-158.568c5.941-10.152,11.338-20.427,16.244-30.812H2928.35
		C2928.854,1459.106,2924.847,1524.013,2915.976,1586.617z"/>
	<g>
		<g>
			<g>
				<rect x="1890.87" y="699.433" style="fill:#49263E;" width="495.093" height="21.242"/>
			</g>
			<g>
				<path style="fill:#FFFFFF;" d="M2051.162,810.387c-5.871-5.871-13.614-9.5-21.882-10.256l-50.127-4.584v187.128h53.961
					c15.714,0,28.452-12.739,28.452-28.452V835.504C2061.565,826.083,2057.823,817.049,2051.162,810.387L2051.162,810.387z
					 M2037.037,967.467c-6.231,0-11.283-5.051-11.283-11.283c0-6.232,5.052-11.283,11.283-11.283
					c6.231,0,11.283,5.051,11.283,11.283C2048.32,962.416,2043.269,967.467,2037.037,967.467z"/>
			</g>
			<g>
				<rect x="1979.152" y="685.888" style="fill:#FEC786;" width="24.528" height="112.05"/>
			</g>
			<g>
				<path style="fill:#FFFFFF;" d="M2089.594,906.309c16.189,0,19.622-39.961,19.622-39.961v-94.186l-19.622-0.253V906.309z"/>
			</g>
			<g>
				<rect x="2089.594" y="685.081" style="fill:#FEC786;" width="10.547" height="86.828"/>
			</g>
			<g>
				<path style="fill:#FFFFFF;" d="M1910.051,770.072V967.01c0,0,32.377-66.399,31.396-196.938H1910.051z"/>
			</g>
			<g>
				<rect x="1910.051" y="683.244" style="fill:#FEC786;" width="14.962" height="86.828"/>
			</g>
			<g>
				<path style="fill:#FFFFFF;" d="M2152.386,770.072V967.01c0,0,32.377-66.399,31.395-196.938H2152.386z"/>
			</g>
			<g>
				<rect x="2152.386" y="683.244" style="fill:#FEC786;" width="14.962" height="86.828"/>
			</g>
			<g>
				<rect x="2228.537" y="690.129" style="fill:#FFFFFF;" width="6.868" height="183.223"/>
			</g>
			<g>
				<rect x="2225.478" y="677.261" style="fill:#FEC786;" width="12.984" height="86.828"/>
			</g>
			<g>
				<path style="fill:#FFFFFF;" d="M2249.819,869.29h-35.697c-4.294,0-7.775,3.481-7.775,7.775v49.532
					c0,4.294,3.481,7.775,7.775,7.775h35.697c4.295,0,7.775-3.481,7.775-7.775v-49.532
					C2257.594,872.771,2254.113,869.29,2249.819,869.29z M2218.916,922.278c0,1.378-1.117,2.496-2.496,2.496
					c-1.378,0-2.496-1.117-2.496-2.496v-41.469c0-1.378,1.117-2.496,2.496-2.496c1.378,0,2.496,1.117,2.496,2.496V922.278z
					 M2229.283,922.278c0,1.378-1.117,2.496-2.496,2.496c-1.379,0-2.496-1.117-2.496-2.496v-41.469c0-1.378,1.117-2.496,2.496-2.496
					c1.378,0,2.496,1.117,2.496,2.496V922.278z M2239.65,922.278c0,1.378-1.117,2.496-2.496,2.496s-2.496-1.117-2.496-2.496v-41.469
					c0-1.378,1.117-2.496,2.496-2.496s2.496,1.117,2.496,2.496V922.278z M2250.017,922.278c0,1.378-1.117,2.496-2.496,2.496
					c-1.378,0-2.496-1.117-2.496-2.496v-41.469c0-1.378,1.117-2.496,2.496-2.496c1.379,0,2.496,1.117,2.496,2.496V922.278z"/>
			</g>
			<g>
				<rect x="2345.059" y="690.129" style="fill:#FFFFFF;" width="6.868" height="183.223"/>
			</g>
			<g>
				<rect x="2342.001" y="677.261" style="fill:#FEC786;" width="12.984" height="86.828"/>
			</g>
			<g>
				<rect x="2288.27" y="690.129" style="fill:#FFFFFF;" width="3.924" height="183.223"/>
			</g>
			<g>
				<rect x="2285.326" y="677.261" style="fill:#FEC786;" width="9.811" height="86.828"/>
			</g>
			<g>
				<path style="fill:#FFFFFF;" d="M2290.232,868.05c-22.421,3.216-9.035,56.816-9.035,56.816
					c-0.798-46.031,9.035-46.031,9.035-46.031s9.832,0,9.035,46.031C2299.267,924.867,2312.653,871.266,2290.232,868.05z"/>
			</g>
			<g>
				<path style="fill:#FFFFFF;" d="M2348.493,898.371c16.061,0,29.081-13.02,29.081-29.081h-58.162
					C2319.412,885.351,2332.432,898.371,2348.493,898.371z"/>
			</g>
		</g>
		<g>
			<rect x="1908.688" y="683.244" style="fill:#1D1D1B;" width="2.726" height="283.767"/>
		</g>
		<g>
			<rect x="1977.789" y="685.889" style="fill:#1D1D1B;" width="2.726" height="296.786"/>
		</g>
		<g>
			<rect x="2088.232" y="685.081" style="fill:#1D1D1B;" width="2.726" height="221.228"/>
		</g>
		<g>
			<rect x="2151.022" y="683.244" style="fill:#1D1D1B;" width="2.726" height="280.352"/>
		</g>
		<g>
			<rect x="2224.116" y="677.261" style="fill:#1D1D1B;" width="2.725" height="86.828"/>
		</g>
		<g>
			<rect x="2283.963" y="677.261" style="fill:#1D1D1B;" width="2.726" height="86.828"/>
		</g>
		<g>
			<rect x="2340.639" y="677.261" style="fill:#1D1D1B;" width="2.725" height="86.828"/>
		</g>
	</g>
	<g>
		<g style="opacity:0.8;">
			<g>
				<g>
					<rect x="531.816" y="858.889" style="fill:#210B06;" width="5.767" height="14.965"/>
				</g>
			</g>
		</g>
		<g style="opacity:0.8;">
			<g>
				<g>
					<rect x="671.913" y="858.889" style="fill:#210B06;" width="5.767" height="14.965"/>
				</g>
			</g>
		</g>
		<g style="opacity:0.8;">
			<g>
				<g>
					<rect x="812.01" y="858.889" style="fill:#210B06;" width="5.767" height="14.965"/>
				</g>
			</g>
		</g>
		<g style="opacity:0.8;">
			<g>
				<g>
					<rect x="952.107" y="858.889" style="fill:#210B06;" width="5.767" height="14.965"/>
				</g>
			</g>
		</g>
		<g>
			<g>
				<g>
					<path style="fill:#FFFFFF;" d="M604.041,731.201c-4.984-1.216-8.948,0.764-11.959,3.649c-0.043-3.25-0.81-11.823-0.81-11.823
						l-82.698,6.403c0,0,1.68,51.451,39.93,49.383l0.003,0.042l11.225-0.869l-0.004-0.053c7.298-0.783,12.976-3.06,17.38-6.243
						c0.172,0.021,0.336,0.072,0.514,0.058c0.062-0.005,0.126-0.012,0.188-0.022c22.666-3.364,33.342-16.471,33.867-27.97
						C611.965,737.428,608.897,732.382,604.041,731.201z M606.348,743.512c-0.282,6.187-5.522,16.872-22.508,21.505
						c4.634-6.276,6.741-13.793,7.636-20.299c2.014-3.927,5.936-9.635,11.303-8.337
						C605.083,736.942,606.518,739.808,606.348,743.512z"/>
				</g>
			</g>
		</g>
		<g>
			<g>
				<g>
					<path style="fill:#FFFFFF;" d="M541.152,871.629c-11.081-3.115-26.88,2.901-37.196,23.362c-0.029,0.056-0.056,0.113-0.08,0.171
						c-0.069,0.165-0.072,0.336-0.106,0.506c-4.405,3.18-8.351,7.856-11.388,14.537l-0.049-0.021l-4.353,10.383l0.038,0.016
						c-13.984,35.662,34.333,53.425,34.333,53.425l32.067-76.496c0,0-7.897-3.422-10.969-4.484c3.685-1.952,6.81-5.094,7.222-10.207
						C551.076,877.841,547.25,873.342,541.152,871.629z M545.356,882.392c-0.455,5.503-7.105,7.432-11.467,8.11
						c-6.458-1.195-14.256-1.556-21.67,0.87c9.736-14.669,21.526-16.286,27.489-14.61
						C543.278,877.765,545.548,880.029,545.356,882.392z"/>
				</g>
			</g>
		</g>
		<g>
			<g>
				<g>
					<path style="fill:#FEC786;" d="M680.889,871.629c-11.081-3.115-26.88,2.901-37.196,23.362c-0.029,0.056-0.056,0.113-0.08,0.171
						c-0.069,0.165-0.072,0.336-0.106,0.506c-4.405,3.18-8.351,7.856-11.388,14.537l-0.049-0.021l-4.353,10.383l0.038,0.016
						c-13.984,35.662,34.333,53.425,34.333,53.425l32.067-76.496c0,0-7.897-3.422-10.969-4.484c3.685-1.952,6.81-5.094,7.222-10.207
						C690.813,877.841,686.987,873.342,680.889,871.629z M685.094,882.392c-0.454,5.503-7.105,7.432-11.467,8.11
						c-6.458-1.195-14.256-1.556-21.67,0.87c9.736-14.669,21.526-16.286,27.489-14.61
						C683.015,877.765,685.285,880.029,685.094,882.392z"/>
				</g>
			</g>
		</g>
		<g>
			<g>
				<g>
					<path style="fill:#FFFFFF;" d="M820.626,871.629c-11.081-3.115-26.88,2.901-37.196,23.362c-0.029,0.056-0.056,0.113-0.08,0.171
						c-0.069,0.165-0.072,0.336-0.106,0.506c-4.405,3.18-8.351,7.856-11.388,14.537l-0.049-0.021l-4.353,10.383l0.038,0.016
						c-13.984,35.662,34.333,53.425,34.333,53.425l32.067-76.496c0,0-7.897-3.422-10.969-4.484c3.685-1.952,6.81-5.094,7.222-10.207
						C830.551,877.841,826.724,873.342,820.626,871.629z M824.831,882.392c-0.455,5.503-7.105,7.432-11.467,8.11
						c-6.458-1.195-14.256-1.556-21.67,0.87c9.736-14.669,21.526-16.286,27.489-14.61
						C822.753,877.765,825.023,880.029,824.831,882.392z"/>
				</g>
			</g>
		</g>
		<g>
			<g>
				<g>
					<path style="fill:#FEC786;" d="M960.364,871.629c-11.081-3.115-26.88,2.901-37.196,23.362c-0.029,0.056-0.056,0.113-0.08,0.171
						c-0.069,0.165-0.072,0.336-0.106,0.506c-4.405,3.18-8.352,7.856-11.388,14.537l-0.049-0.021l-4.353,10.383l0.038,0.016
						c-13.983,35.662,34.333,53.425,34.333,53.425l32.067-76.496c0,0-7.897-3.422-10.969-4.484c3.685-1.952,6.81-5.094,7.222-10.207
						C970.288,877.841,966.462,873.342,960.364,871.629z M964.568,882.392c-0.455,5.503-7.105,7.432-11.467,8.11
						c-6.458-1.195-14.256-1.556-21.67,0.87c9.736-14.669,21.526-16.286,27.489-14.61
						C962.49,877.765,964.76,880.029,964.568,882.392z"/>
				</g>
			</g>
		</g>
		<g>
			<g>
				<g>
					<path style="fill:#FEBAC7;" d="M480.761,756.987c-2.875,11.146,3.48,26.811,24.159,36.683c0.056,0.028,0.115,0.054,0.173,0.077
						c0.166,0.065,0.338,0.065,0.508,0.095c3.275,4.336,8.034,8.18,14.78,11.072l-0.02,0.05l10.475,4.128l0.015-0.039
						c35.956,13.211,52.672-35.478,52.672-35.478l-77.17-30.408c0,0-3.251,7.969-4.246,11.063c-2.031-3.642-5.239-6.699-10.36-7
						C486.757,746.931,482.343,750.854,480.761,756.987z M491.431,752.551c5.512,0.336,7.584,6.943,8.356,11.289
						c-1.055,6.482-1.248,14.286,1.338,21.646c-14.876-9.417-16.747-21.17-15.199-27.167
						C486.85,754.729,489.064,752.411,491.431,752.551z"/>
				</g>
			</g>
		</g>
		<g>
			<g>
				<g>
					<path style="fill:#FFFFFF;" d="M594.176,805.061c-4.875-1.597-8.98,0.071-12.205,2.715c0.208-3.244,0.105-11.85,0.105-11.85
						h-82.945c0,0-2.297,51.427,35.998,52.318v0.042h11.259v-0.053c7.336-0.217,13.174-2.049,17.81-4.883
						c0.169,0.034,0.329,0.098,0.508,0.098c0.063,0,0.126-0.003,0.189-0.008c22.858-1.604,34.514-13.848,35.925-25.272
						C601.596,811.881,598.927,806.613,594.176,805.061z M595.526,817.513c-0.759,6.147-6.808,16.396-24.101,19.703
						c5.104-5.899,7.786-13.231,9.18-19.649c2.312-3.76,6.662-9.148,11.913-7.44C594.772,810.865,595.982,813.834,595.526,817.513z"
						/>
				</g>
			</g>
		</g>
		<g>
			<g>
				<g>
					<g>
						<g>
							<g>
								<g>
									<g>
										<path style="fill:#258D8C;" d="M904.41,660.662c0,0,3.682-51.338,23.611-41.373c19.928,9.964,36.175,75.382,38.341,77.331
											c2.166,1.95,1.516,61.735,1.516,61.735l-23.178-11.694C944.701,746.661,938.534,603.76,904.41,660.662z"/>
									</g>
								</g>
							</g>
						</g>
					</g>
				</g>
				<g>
					<g>
						<g>
							<g>
								<g>
									<g>
										<path style="fill:#7FC6A6;" d="M926.744,554.37c0,0,44.654,39.954,56.839,108.458
											c12.185,68.505-26.319,88.666-26.319,88.666S951.785,607.453,926.744,554.37z"/>
									</g>
								</g>
							</g>
						</g>
					</g>
				</g>
				<g>
					<g>
						<g>
							<g>
								<g>
									<g>
										<path style="fill:#258D8C;" d="M1009.577,760.738c0,0,7.473-145.831,45.164-209.058c0,0-66.171,39.477-88.111,143.095
											c-1.235,5.833-1.968,12.318-2.903,18.562c-0.973,6.497-1.554,12.25-1.405,17.993c0.262,10.146,1.67,18.865,2.083,25.273
											C967.979,811.969,1009.577,760.738,1009.577,760.738z"/>
									</g>
								</g>
							</g>
						</g>
					</g>
				</g>
				<g>
					<g>
						<g>
							<g>
								<g>
									<g>
										<path style="fill:#7FC6A6;" d="M1008.3,698.813c2.564-20.791,10.459-40.61,23.146-57.28
											c9.165-12.042,19.775-21.194,28.061-14.663c18.412,14.513,22.094,104.625,22.094,104.625s-20.795-62.385-29.893-58.269
											c-9.098,4.116-17.546,88.812-17.546,88.812l-34.008,2.816L1008.3,698.813z"/>
									</g>
								</g>
							</g>
						</g>
					</g>
				</g>
				<g>
					<g>
						<g>
							<g>
								<g>
									<g>
										<path style="fill:#21111D;" d="M961.913,755.647c-1.396-31.838,2.597-62.396,11.868-90.825
											c7.418-22.745,18.211-44.185,32.081-63.724c23.62-33.274,48.329-49.716,48.576-49.878l0.605,0.92
											c-0.245,0.161-24.811,16.515-48.311,49.635c-21.682,30.557-46.866,82.048-43.719,153.823L961.913,755.647z"/>
									</g>
								</g>
							</g>
						</g>
					</g>
				</g>
				<g>
					<g>
						<g>
							<g>
								<g>
									<g>
										<path style="fill:#21111D;" d="M956.714,751.515c-0.013-0.36-1.421-36.485-5.867-78.626
											c-4.101-38.865-11.698-90.934-24.6-118.284l0.995-0.469c12.969,27.49,20.59,79.693,24.7,118.645
											c4.45,42.177,5.858,78.333,5.872,78.693L956.714,751.515z"/>
									</g>
								</g>
							</g>
						</g>
					</g>
				</g>
				<g>
					<g>
						<g>
							<g>
								<g>
									<g>
										<path style="fill:#21111D;" d="M944.151,746.685c-0.01-0.235-1.057-23.721-4.508-47.521
											c-4.538-31.293-11.096-48.9-18.967-50.918c-4.647-1.19-9.961,3.083-15.796,12.702l-0.941-0.571
											c6.116-10.082,11.839-14.523,17.01-13.196c8.455,2.167,15.111,19.607,19.784,51.833
											c3.459,23.853,4.507,47.389,4.517,47.623L944.151,746.685z"/>
									</g>
								</g>
							</g>
						</g>
					</g>
				</g>
				<g>
					<g>
						<g>
							<g>
								<g>
									<g>
										<path style="fill:#21111D;" d="M1000.7,764.921l-1.093-0.135l8.146-66.041c2.599-21.073,10.64-40.972,23.254-57.546
											c7.986-10.494,15.08-16.202,21.085-16.964c2.835-0.361,5.444,0.381,7.755,2.203c7.752,6.111,13.861,25.663,18.157,58.115
											c3.189,24.088,4.138,46.694,4.147,46.92l-1.1,0.045c-0.037-0.898-3.881-90.023-21.885-104.215
											c-2.071-1.632-4.404-2.295-6.935-1.975c-5.7,0.724-12.546,6.289-20.348,16.539
											c-12.496,16.419-20.462,36.134-23.038,57.014L1000.7,764.921z"/>
									</g>
								</g>
							</g>
						</g>
					</g>
				</g>
				<g>
					<g>
						<g>
							<g>
								<g>
									<g>
										
											<rect x="1025.178" y="690.106" transform="matrix(0.4584 -0.8888 0.8888 0.4584 -54.3391 1292.1478)" style="fill:#21111D;" width="15.585" height="1.101"/>
									</g>
								</g>
							</g>
						</g>
					</g>
				</g>
				<g>
					<g>
						<g>
							<g>
								<g>
									<g>
										
											<rect x="1025.566" y="699.019" transform="matrix(0.4825 -0.8759 0.8759 0.4825 -78.1727 1266.8319)" style="fill:#21111D;" width="14.81" height="1.101"/>
									</g>
								</g>
							</g>
						</g>
					</g>
				</g>
				<g>
					<g>
						<g>
							<g>
								<g>
									<g>
										
											<rect x="958.859" y="600.45" transform="matrix(0.9101 -0.4145 0.4145 0.9101 -165.6404 452.3433)" style="fill:#21111D;" width="1.101" height="14.736"/>
									</g>
								</g>
							</g>
						</g>
					</g>
				</g>
				<g>
					<g>
						<g>
							<g>
								<g>
									<g>
										
											<rect x="959.313" y="610.968" transform="matrix(0.8747 -0.4847 0.4847 0.8747 -178.4454 542.4758)" style="fill:#21111D;" width="1.101" height="10.726"/>
									</g>
								</g>
							</g>
						</g>
					</g>
				</g>
				<g>
					<g>
						<g>
							<g>
								<g>
									<g>
										
											<rect x="927.146" y="621.512" transform="matrix(0.4541 -0.891 0.891 0.4541 -52.4995 1169.0117)" style="fill:#21111D;" width="1.101" height="11.67"/>
									</g>
								</g>
							</g>
						</g>
					</g>
				</g>
				<g>
					<g>
						<g>
							<g>
								<g>
									<g>
										
											<rect x="929.269" y="629.04" transform="matrix(0.5197 -0.8543 0.8543 0.5197 -93.9217 1098.2069)" style="fill:#21111D;" width="1.1" height="7.2"/>
									</g>
								</g>
							</g>
						</g>
					</g>
				</g>
			</g>
			<g>
				<g>
					<g>
						<g>
							<g>
								<g>
									<path style="fill:#EF3A4C;" d="M932.895,742.953c0,0,1.941,106.613,30.496,104.112h22.455h3.606h22.455
										c28.556,2.501,30.496-104.112,30.496-104.112C1015.381,738.869,959.917,738.869,932.895,742.953z"/>
								</g>
							</g>
						</g>
					</g>
				</g>
			</g>
			<g>
				<g>
					<g>
						<g>
							<g>
								<g>
									
										<rect x="993.067" y="772.904" transform="matrix(0.6875 -0.7262 0.7262 0.6875 -244.2439 979.3488)" style="fill:#21111D;" width="45.38" height="1.101"/>
								</g>
							</g>
						</g>
					</g>
				</g>
			</g>
			<g>
				<g>
					<g>
						<g>
							<g>
								<g>
									
										<rect x="1000.521" y="787.517" transform="matrix(0.6563 -0.7545 0.7545 0.6563 -246.2177 1035.6346)" style="fill:#21111D;" width="26.179" height="1.101"/>
								</g>
							</g>
						</g>
					</g>
				</g>
			</g>
		</g>
		<g>
			<g>
				<g>
					<rect x="471.767" y="848.285" style="fill:#F99247;" width="587.702" height="10.604"/>
				</g>
			</g>
		</g>
		<g>
			<g>
				<g>
					<rect x="471.767" y="847.331" width="587.702" height="1.91"/>
				</g>
			</g>
		</g>
		<g>
			<g>
				<g>
					<path style="fill:#B9DAF4;" d="M901.012,847.109h-51.097c-0.658,0-1.192-0.534-1.192-1.192v-99.844
						c0-0.658,0.534-1.192,1.192-1.192h51.097c0.658,0,1.192,0.534,1.192,1.192v99.844
						C902.204,846.575,901.67,847.109,901.012,847.109z"/>
				</g>
			</g>
		</g>
		<g style="opacity:0.8;">
			<g>
				<g>
					<rect x="851.95" y="764.913" style="fill:#210B06;" width="47.027" height="74.138"/>
				</g>
			</g>
		</g>
		<g>
			<g>
				<g>
					<path style="fill:#4B4B4C;" d="M902.132,744.882h-53.336c-0.04,0-0.072-0.032-0.072-0.072v-3.693
						c0-0.04,0.032-0.072,0.072-0.072h53.336c0.04,0,0.072,0.033,0.072,0.072v3.693
						C902.204,744.849,902.172,744.882,902.132,744.882z"/>
				</g>
			</g>
		</g>
		<g>
			<g>
				<g>
					<rect x="864.938" y="789.088" style="fill:#7FC6A6;" width="37.266" height="13.815"/>
				</g>
			</g>
		</g>
		<g>
			<g>
				<g>
					<path style="fill:#B9DAF4;" d="M701.786,847.268H642.04c-0.658,0-1.192-0.534-1.192-1.192v-147.88
						c0-0.658,0.534-1.192,1.192-1.192h59.745c0.658,0,1.192,0.533,1.192,1.192v147.88
						C702.977,846.734,702.444,847.268,701.786,847.268z"/>
				</g>
			</g>
		</g>
		<g style="opacity:0.8;">
			<g>
				<g>
					<rect x="644.598" y="726.448" style="fill:#210B06;" width="54.631" height="108.975"/>
				</g>
			</g>
		</g>
		<g>
			<g>
				<g>
					<path style="fill:#FAC78D;" d="M702.3,697.57h-60.774c-0.374,0-0.677-0.303-0.677-0.677v-4.286
						c0-0.374,0.303-0.677,0.677-0.677H702.3c0.374,0,0.677,0.303,0.677,0.677v4.286C702.977,697.267,702.674,697.57,702.3,697.57z"
						/>
				</g>
			</g>
		</g>
		<g>
			<g>
				<g>
					<rect x="659.685" y="761.983" style="fill:#FEC786;" width="43.292" height="20.306"/>
				</g>
			</g>
		</g>
		<g>
			<g>
				<g>
					<path style="fill:#B9DAF4;" d="M814.872,847.268h-59.745c-0.658,0-1.192-0.534-1.192-1.192V674.435
						c0-0.658,0.534-1.192,1.192-1.192h59.745c0.658,0,1.192,0.534,1.192,1.192v171.642
						C816.064,846.734,815.53,847.268,814.872,847.268z"/>
				</g>
			</g>
		</g>
		<g style="opacity:0.8;">
			<g>
				<g>
					<rect x="757.684" y="707.343" style="fill:#210B06;" width="54.631" height="126.207"/>
				</g>
			</g>
		</g>
		<g>
			<g>
				<g>
					<path style="fill:#FAC78D;" d="M815.279,673.243h-60.56c-0.433,0-0.784-0.351-0.784-0.784v-4.964
						c0-0.433,0.351-0.784,0.784-0.784h60.56c0.433,0,0.785,0.351,0.785,0.784v4.964
						C816.064,672.892,815.713,673.243,815.279,673.243z"/>
				</g>
			</g>
		</g>
		<g>
			<g>
				<g>
					<rect x="772.771" y="748.497" style="fill:#FEBAC7;" width="43.292" height="23.517"/>
				</g>
			</g>
		</g>
		<g>
			<g>
				<g>
					<polygon points="641.804,848.286 639.894,848.286 639.894,697.241 702.977,697.241 702.977,699.151 641.804,699.151 					"/>
				</g>
			</g>
		</g>
		<g>
			<g>
				<g>
					<polygon points="755.674,847.267 753.764,847.267 753.764,672.289 815.279,672.289 815.279,674.198 755.674,674.198 					"/>
				</g>
			</g>
		</g>
		<g>
			<g>
				<g>
					<path style="fill:#210B06;" d="M537.592,876.295c-0.082-1.533-1.34-2.754-2.893-2.754c-1.553,0-2.811,1.221-2.893,2.754h-0.016
						v2.956h0.011c0.061,1.553,1.33,2.796,2.897,2.796c1.568,0,2.837-1.243,2.898-2.796h0.011v-2.956H537.592z"/>
				</g>
			</g>
		</g>
		<g>
			<g>
				<g>
					<path style="fill:#210B06;" d="M677.69,876.295c-0.082-1.533-1.34-2.754-2.893-2.754c-1.553,0-2.811,1.221-2.893,2.754h-0.016
						v2.956h0.011c0.061,1.553,1.33,2.796,2.897,2.796c1.568,0,2.837-1.243,2.898-2.796h0.011v-2.956H677.69z"/>
				</g>
			</g>
		</g>
		<g>
			<g>
				<g>
					<path style="fill:#210B06;" d="M817.787,876.295c-0.082-1.533-1.34-2.754-2.893-2.754c-1.553,0-2.811,1.221-2.893,2.754h-0.016
						v2.956h0.011c0.061,1.553,1.33,2.796,2.898,2.796c1.568,0,2.837-1.243,2.898-2.796h0.011v-2.956H817.787z"/>
				</g>
			</g>
		</g>
		<g>
			<g>
				<g>
					<path style="fill:#210B06;" d="M957.884,876.295c-0.082-1.533-1.34-2.754-2.893-2.754c-1.553,0-2.811,1.221-2.893,2.754h-0.016
						v2.956h0.011c0.06,1.553,1.33,2.796,2.898,2.796c1.568,0,2.837-1.243,2.897-2.796h0.011v-2.956H957.884z"/>
				</g>
			</g>
		</g>
	</g>
	<g>
		<polygon style="fill:#EA824E;" points="940.486,1483.763 2137.269,1483.763 2352.884,1689.687 720.026,1689.687 		"/>
		<rect x="720.026" y="1689.687" style="fill:#995A47;" width="1632.858" height="19.248"/>
		<g style="opacity:0.5;">
			<g>
				<polygon style="fill:#995A47;" points="2185.426,1529.755 891.247,1529.755 894.164,1527.03 2182.572,1527.03 				"/>
			</g>
			<g>
				<polygon style="fill:#995A47;" points="2268.971,1609.546 805.824,1609.546 808.956,1606.82 2266.117,1606.82 				"/>
			</g>
		</g>
	</g>
	<g>
		<g>
			<path style="fill:#D5E3FC;" d="M1892.949,1468.537c0,0.204-0.007,0.407-0.013,0.611c-0.258,13.725-2.342,26.479-6.021,38.222
				c-0.353,1.154-0.733,2.294-1.12,3.421c-0.007,0-0.007,0-0.007,0c-5.844,16.949-15.089,31.712-27.008,44.141
				c-1.425,1.487-2.891,2.939-4.392,4.358c-29.56,27.945-73.504,42.858-122.573,42.858c-48.641,0-92.252-14.655-121.799-42.125
				c-1.554-1.446-3.068-2.925-4.534-4.439c-12.333-12.666-21.856-27.789-27.796-45.22c-0.401-1.174-0.787-2.355-1.154-3.557
				c-3.57-11.587-5.586-24.157-5.844-37.658c-0.007-0.204-0.014-0.407-0.014-0.611c1.303-9.876,72.948-17.831,161.141-17.831
				L1892.949,1468.537z"/>
			<path style="fill:#B3CEF4;" d="M1892.969,1468.808c0,0.115-0.007,0.224-0.034,0.339c-0.306,1.873-3.143,4.405-8.139,7.29
				c-21.266,12.266-81.724,30.782-152.982,30.782c-60.54,0-113.287-13.365-140.832-24.911c-12.49-5.234-19.793-10.094-20.295-13.161
				c-0.027-0.115-0.034-0.224-0.034-0.339c0-0.088,0.007-0.183,0.021-0.271c1.303-9.876,72.948-25.271,161.141-25.271
				c88.186,0,159.831,15.395,161.134,25.271C1892.963,1468.625,1892.969,1468.72,1892.969,1468.808z"/>
			<path style="fill:#EA684E;" d="M1884.797,1476.438c-21.266,12.266-72.365,32.05-151.714,32.05
				c-66.059,0-114.555-14.632-142.099-26.178c7.324-6.259,19.114-13.732,31.794-11.288c20.92,4.025,54.702,10.86,71.597,4.222
				c16.895-6.638,37.407-19.107,68.38-10.256s39.823,14.885,59.128,10.256c19.311-4.622,45.057-11.865,56.718-3.821
				C1880.548,1472.766,1882.693,1474.476,1884.797,1476.438z"/>
			<g>
				<path style="fill:#B3CEF4;" d="M1886.915,1507.37c-0.353,1.154-0.733,2.294-1.12,3.421c-0.007,0-0.007,0-0.007,0
					c-38.351,15.958-77.781,26.017-117.387,29.92c-12.686,1.256-25.4,1.88-38.093,1.88c-22.305,0-44.548-1.928-66.486-5.776
					c-41.276-7.236-71.651-19.657-86.136-26.452c-0.401-1.174-0.787-2.355-1.154-3.557c13.195,6.38,44.432,19.752,87.881,27.354
					C1716.265,1543.236,1796.271,1545.646,1886.915,1507.37z"/>
			</g>
			<g>
				<path style="fill:#B3CEF4;" d="M1858.78,1554.931c-1.425,1.487-2.891,2.939-4.392,4.358
					c-28.332,9.292-57.112,15.401-85.987,18.252c-12.686,1.249-25.4,1.873-38.093,1.873c-22.305,0-44.548-1.928-66.486-5.77
					c-20.967-3.672-39.118-8.688-53.806-13.623c-1.554-1.446-3.068-2.925-4.534-4.439c15.442,5.478,35.391,11.288,58.931,15.408
					C1710.834,1579.116,1779.811,1581.892,1858.78,1554.931z"/>
			</g>
		</g>
		<g>
			<path style="fill:#49263E;" d="M1889.11,1427.058l-8.391-6.041c-0.649-0.467-1.318-0.888-2-1.271
				c-0.048-0.031-0.068-0.043-0.068-0.043l-0.01,0c-9.172-5.1-20.948-2.636-27.227,6.085l-66.559,92.451l-41.596-29.947
				c-9.19,12.765-6.292,30.564,6.473,39.754c12.711,9.151,30.41,6.313,39.634-6.314l0.004,0.003l0.114-0.158
				c0.001-0.001,0.002-0.002,0.003-0.003l0,0l66.559-92.451c2.41-3.348,5.935-5.427,9.706-6.104
				c0.064,0.004,13.641,0.93,19.675,11.869C1891.475,1445.851,1898.208,1433.584,1889.11,1427.058z"/>
		</g>
		<path style="fill:#D5E3FC;" d="M1734.298,1508.488c0,0,37.702-1.276,51.13-3.056c13.428-1.779,28.414-4.533,28.414-4.533
			s-8.047,17.234-8.349,17.686c-0.302,0.453-28.207,15.838-28.207,15.838h-26.397c0,0-10.257-3.469-10.71-4.374
			C1739.728,1529.144,1734.298,1508.488,1734.298,1508.488z"/>
		<path style="fill:#EA684E;" d="M1729.471,1494.451l19.458-12.821l30.771,24.415c0,0-31.852,2.689-46.618,2.443
			C1718.317,1508.241,1729.471,1494.451,1729.471,1494.451z"/>
	</g>
	<g>
		<g>
			<path style="fill:#FFFFFF;" d="M2018.708,1441.801c0,0,39.386-22.72,59.981-26.695c20.595-3.974,53.113-41.912,91.773-22.04
				c38.66,19.872,82.671,48.737,82.671,48.737s-37.145,22.802-44.372,24.248c-7.226,1.445-64.472,2.529-80.471,2.891
				c-15.999,0.361-65.137-1.084-74.893-4.336C2043.642,1461.354,2018.708,1441.801,2018.708,1441.801z"/>
			<path style="fill:#EFBFB4;" d="M2253.133,1441.803c-132.655,33.645-234.424-0.003-234.425-0.003
				c-6.196,6.411-11.683,13.613-16.286,21.534c-5.411,9.311-8.866,18.185-8.46,25.299c1.626,28.453,11.381,69.914-16.259,103.245
				c-27.64,33.331-13.007,82.805,58.533,88.554c71.54,5.749,131.292-13.991,181.491-3.308c50.2,10.683,82.718-40.533,58.329-99.878
				C2254.132,1523.896,2272.274,1467.926,2253.133,1441.803z"/>
			<path style="fill:#E5A695;" d="M2018.708,1441.801c0,0-50.211,29.731-32.06,54.239c13.885,18.748,10.023-32.699,64.581-2.529
				c37.336,20.646,63.049,15.717,96.109-0.542c33.06-16.259,44.456,16.292,68.288,13.02c39.564-5.432,25.201-24.943,37.125-27.924
				c7.254-1.813,10.844,22.685,18.427,8.401c11.652-21.95-18.045-44.662-18.045-44.662S2136.491,1473.895,2018.708,1441.801z"/>
		</g>
		<rect x="2056.896" y="1546.991" style="fill:#E5A695;" width="164.134" height="36.651"/>
	</g>
	<g>
		<g>
			<g>
				<ellipse style="fill:#D5E3FC;" cx="1204.362" cy="1580.948" rx="230.732" ry="70.455"/>
			</g>
			<g>
				<g>
					<path style="fill:#D5E3FC;" d="M1204.362,1632.43c-113.019,0-201.55-22.614-201.55-51.482s88.531-51.48,201.55-51.48
						s201.55,22.612,201.55,51.48S1317.381,1632.43,1204.362,1632.43z M1204.362,1533.619c-118.079,0-197.399,24.471-197.399,47.329
						s79.319,47.331,197.399,47.331c118.079,0,197.399-24.473,197.399-47.331S1322.442,1533.619,1204.362,1533.619z"/>
				</g>
			</g>
		</g>
		<path style="fill:#E5A695;" d="M1069.651,1508.407c20.974-12.14,45.97-8.171,55.831,8.864
			c9.861,17.036,0.852,40.688-20.122,52.828c-20.974,12.14-65.667,19.573-75.528,2.537
			C1019.971,1555.6,1048.677,1520.547,1069.651,1508.407z"/>
		<path style="fill:#E5A695;" d="M1312.751,1510.887c20.974-12.14,45.97-8.171,55.831,8.865
			c9.861,17.036,0.852,40.688-20.122,52.828c-20.974,12.14-65.667,19.573-75.528,2.537
			C1263.071,1558.08,1291.778,1523.027,1312.751,1510.887z"/>
		<path style="fill:#EFBFB4;" d="M1152.274,1552.2c-24.188,1.488-44.776-13.232-45.985-32.879
			c-1.209-19.647,17.42-36.78,41.608-38.268s67.492,11.834,68.701,31.481C1217.807,1532.181,1176.462,1550.712,1152.274,1552.2z"/>
		<path style="fill:#FFFFFF;" d="M1150.93,1588.406c-23.104,7.314-46.649-1.97-52.59-20.735
			c-5.941-18.766,7.973-39.908,31.076-47.222s68.347-4.899,74.287,13.867C1209.645,1553.081,1174.033,1581.092,1150.93,1588.406z"/>
		<path style="fill:#FFFFFF;" d="M1290.192,1546.629c23.548,5.726,38.866,25.873,34.215,44.999
			c-4.651,19.126-27.511,29.989-51.058,24.263c-23.548-5.726-60.981-31.251-56.33-50.377
			C1221.67,1546.389,1266.644,1540.903,1290.192,1546.629z"/>
		<g>
			<path style="fill:#FCEEEB;" d="M1537.144,1594.678h12.113l7.874-7.268l22.864,8.547l11.356-4.414l12.147,9.778l-15.478,11.527
				c0,0-31.191,4.542-31.797,4.542c-0.606,0-12.416-3.634-13.779-5.754C1541.081,1609.517,1537.144,1594.678,1537.144,1594.678z"/>
			<path style="fill:#FFFFFF;" d="M1603.497,1601.321c-0.6,23.589-16.312,42.463-35.608,42.463
				c-19.692,0-35.649-19.637-35.649-43.88c0-1.513,0.068-3.093,0.191-4.743l11.079-4.251l5.846,11.038l18.533-16.857l26.492,19.882
				L1603.497,1601.321z"/>
		</g>
		<g>
			<path style="fill:#FCEEEB;" d="M1638.693,1560.849l-4.038,9.3v10.799l-6.662,19.484l-13.325,4.24l9.993,17.564l26.649-21.198
				c0,0,1.817-18.775,0-22.409C1649.494,1574.994,1638.693,1560.849,1638.693,1560.849z"/>
			<path style="fill:#FFFFFF;" d="M1620.832,1629.826c-0.468-0.089-0.924-0.175-1.387-0.29l-1.896-9.636l24.455-22.339
				l-13.123-21.341l11.932-3.695l-2.12-11.676c23.86,6.354,57.663,28.191,54.235,46.335
				C1689.274,1626.52,1644.64,1634.325,1620.832,1629.826z"/>
		</g>
		<g>
			<path style="fill:#FCEEEB;" d="M1523.399,1496.196l6.205,10.975l-7.844,12.788l3.502,10.229l-1.104,5.849l12.762,13.211
				l-5.069,11.443c0,0,14.21,1.359,15.013-1.264c0.803-2.622,8.487-11.496,6.151-18.717c-2.336-7.22-10.129-32.883-10.435-33.711
				C1542.274,1506.171,1523.399,1496.196,1523.399,1496.196z"/>
			<path style="fill:#FCEEEB;" d="M1487.519,1520.34c0,0,4,15.547,4.772,15.539c0.772-0.008,18.767,2.617,18.767,2.617l5.952,25.623
				c0,0-41.905-5.75-41.959-7.917c-0.053-2.167-3.015-23.22-1.311-24.901C1475.445,1529.618,1487.519,1520.34,1487.519,1520.34z"/>
			<path style="fill:#FFFFFF;" d="M1515.581,1545.004l5.823,22.205c-23.588,6.977-65.476,5.327-71.743-12.469
				c-4.242-12.061,8.931-28.589,24.939-40.892l14.703,2.774l-3.868,20.502L1515.581,1545.004z"/>
			<path style="fill:#FFFFFF;" d="M1534.965,1568.81l-3.114-8.12l13.394-9.614l-26.569-27.774l16.448-17.829l-11.724-9.277
				c6.348,0.053,12.332,0.661,17.354,1.789c23.648,5.297,39.338,25.167,35.029,44.368
				C1572.08,1558.887,1554.793,1569.545,1534.965,1568.81z"/>
		</g>
	</g>
	<g>
		<g>
			<g>
				<path style="fill:#FEC786;" d="M790.25,1261.632c0-4.221-2.871-7.643-6.412-7.643h-7.893h-5.981h-1.911
					c-3.542,0-6.413,3.422-6.413,7.643v0v14.672h28.61V1261.632L790.25,1261.632z"/>
			</g>
		</g>
		<g>
			<g>
				<path style="fill:#258D8C;" d="M736.413,1320.839c0,0-0.003,0.003-0.01,0.01c-0.387,0.44-11.769,13.383-13.618,23.674
					c-0.109,5.949-0.179,15.383-0.218,27.142c-0.003,1.643-0.01,3.337-0.013,5.069c-0.079,32.781,0.056,2.515,0.218,44.046
					c0.036,9.15,0.076,17.992,0.112,26.292c0.156,34.014,0.298,58.944,0.298,58.944s2.794,8.426,11.316,9.114
					c8.522,0.685,41.424,0,41.448,0c0.023,0,32.926,0.685,41.448,0c8.522-0.688,11.316-9.114,11.316-9.114
					s0.146-25.281,0.301-59.655c0.036-8.403,0.076-17.351,0.109-26.603c0.162-41.057,0.294-9.969,0.218-42.462
					c-0.003-1.644-0.007-3.251-0.013-4.815c-0.033-12.139-0.103-21.871-0.218-27.959c-1.848-10.291-13.231-23.234-13.617-23.674
					c-0.007-0.007-0.01-0.01-0.01-0.01c-10.175-10.185-22.483-21.756-22.483-21.756v-20.461l2.523-2.526
					c0.642-0.642,1.002-1.511,1.002-2.417v-2.368c0-1.888-1.531-3.419-3.416-3.419h-34.318c-1.888,0-3.419,1.531-3.419,3.419v2.368
					c0,0.906,0.361,1.776,1.002,2.417l2.526,2.526v20.461C758.896,1299.083,746.588,1310.653,736.413,1320.839z"/>
			</g>
		</g>
		<g style="opacity:0.1;">
			<g>
				<path style="fill:#FFFFFF;" d="M784.886,1502.306c2.714,4.812,33.084,0.855,36.151-0.511
					c3.067-1.366,0.314-148.908-3.381-160.762c-3.695-11.854-29.319-29.129-29.319-29.129c-2.336-1.635-8.988,1.891-4.027,9.758
					C789.272,1329.529,782.173,1497.494,784.886,1502.306z"/>
			</g>
		</g>
		<g style="opacity:0.1;">
			<g>
				<path style="fill:#FFFFFF;" d="M743.375,1332.445c0,0-9.259,6.908-9.553,15.579c-0.294,8.671,0.441,150.351,2.792,153.584
					c2.352,3.233,8.23,4.267,9.406,3.016c1.176-1.252-3.233-159.098-2.057-161.743
					C745.139,1340.235,746.95,1329.145,743.375,1332.445z"/>
			</g>
		</g>
	</g>
	<g>
		<g>
			<g>
				<g>
					<path style="fill:#A2C7FC;" d="M516.943,1278.059l-0.378-0.05l0,0.098l-23.778,2.995c0,0-13.804,49.453-24.754,63.492
						c-10.951,14.039-16.896,25.371-16.95,40.358c-0.054,14.987-0.655,180.751-0.655,180.751s2.121,41.336,41.158,46.927
						l23.767,0.086l0.757,0.003l23.767,0.086c39.077-5.308,41.497-46.628,41.497-46.628s0.6-165.765,0.654-180.752
						c0.054-14.987-5.809-26.362-16.657-40.48c-10.849-14.118-24.294-63.67-24.294-63.67l-23.756-3.167l0.001-0.098
						L516.943,1278.059z"/>
				</g>
			</g>
		</g>
		<g>
			<g>
				<g>
					<g>
						<path style="fill:#CAF2F9;" d="M527.123,1380.232c10.93-6.218,15.713-5.797,19.941-10.626
							c4.228-4.829,8.566-20.914,8.566-20.914s-15.153-9.589-28.587,0.859c-13.434,10.447-29.087-0.307-29.087-0.307
							s2.214,22.817,3.932,24.034S516.192,1386.45,527.123,1380.232z"/>
					</g>
				</g>
			</g>
		</g>
		<g>
			<g>
				<g>
					<g>
						<path style="fill:#F0F8FA;" d="M537.165,1606.337c34.65-4.972,36.815-46.579,36.815-46.579s0.561-155.033,0.612-169.05
							c0.051-14.017-5.146-24.654-14.763-37.857c-0.046-0.063-0.092-0.129-0.141-0.198c-4.78-6.907-14.035-8.279-20.298-2.844
							c-4.451,3.863-8.292,8.312-12.384,9.632c-8.047,2.595-17.303-4.984-29.051-10.198c-22.354-9.921-39.424,27.027-39.475,41.044
							c-0.051,14.017-0.612,169.05-0.612,169.05s1.863,41.622,36.476,46.844L537.165,1606.337z"/>
					</g>
				</g>
			</g>
		</g>
		<g>
			<g>
				<g>
					<g>
						<path style="fill:#FEC786;" d="M490.574,1268.466c-5.239-0.019-9.502,4.213-9.521,9.452c-0.019,5.24,4.213,9.502,9.452,9.521
							l54.498,0.198l0.001-0.14c4.473-0.751,7.889-4.63,7.906-9.318c0.017-4.688-3.371-8.592-7.838-9.375l0.001-0.14
							L490.574,1268.466z"/>
					</g>
				</g>
			</g>
		</g>
		<g style="opacity:0.5;">
			<g>
				<g>
					<g>
						<path style="fill:#F0F8FA;" d="M543.201,1320.793c2.37-0.822,2.839-5.672,1.048-10.833c-1.79-5.16-5.163-8.677-7.533-7.855
							c-2.37,0.822-2.839,5.672-1.049,10.833C537.459,1318.098,540.832,1321.615,543.201,1320.793z"/>
					</g>
				</g>
			</g>
		</g>
	</g>
	<g>
		<g>
			<g>
				<path style="fill:#FEC786;" d="M638.52,1271.125c0-6.01-4.088-10.883-9.131-10.883h-11.239h-8.517h-2.722
					c-5.043,0-9.131,4.872-9.131,10.883v0v20.894h40.741V1271.125L638.52,1271.125z"/>
			</g>
		</g>
		<g>
			<g>
				<path style="fill:#49263E;" d="M561.855,1355.436c0,0-0.005,0.005-0.014,0.014c-0.551,0.626-16.759,19.057-19.392,33.712
					c-0.155,8.471-0.254,21.906-0.311,38.651c-0.005,2.34-0.014,4.751-0.019,7.219c-0.113,46.68,0.08,3.582,0.311,62.722
					c0.052,13.03,0.108,25.621,0.16,37.441c0.221,48.436,0.424,83.937,0.424,83.937s3.979,11.999,16.114,12.978
					c12.135,0.975,58.989,0,59.022,0s46.887,0.975,59.022,0c12.135-0.979,16.114-12.978,16.114-12.978s0.207-36,0.429-84.95
					c0.052-11.965,0.108-24.708,0.155-37.884c0.231-58.467,0.419-14.196,0.311-60.466c-0.005-2.34-0.009-4.629-0.019-6.856
					c-0.047-17.287-0.146-31.145-0.311-39.814c-2.632-14.654-18.841-33.085-19.391-33.712c-0.009-0.01-0.014-0.014-0.014-0.014
					c-14.49-14.504-32.016-30.98-32.016-30.98v-29.137l3.593-3.598c0.914-0.913,1.427-2.152,1.427-3.442v-3.372
					c0-2.689-2.18-4.869-4.864-4.869h-48.87c-2.689,0-4.869,2.18-4.869,4.869v3.372c0,1.29,0.513,2.529,1.427,3.442l3.598,3.598
					v29.137C593.872,1324.456,576.345,1340.932,561.855,1355.436z"/>
			</g>
		</g>
		<g style="opacity:0.1;">
			<g>
				<path style="fill:#FFFFFF;" d="M630.882,1613.848c3.865,6.852,47.112,1.217,51.479-0.729
					c4.368-1.945,0.447-212.047-4.815-228.927c-5.262-16.88-41.751-41.48-41.751-41.48c-3.327-2.328-12.799,2.693-5.734,13.896
					C637.128,1367.811,627.018,1606.996,630.882,1613.848z"/>
			</g>
		</g>
		<g style="opacity:0.1;">
			<g>
				<path style="fill:#FFFFFF;" d="M571.77,1371.964c0,0-13.185,9.837-13.604,22.185c-0.419,12.348,0.628,214.101,3.977,218.706
					c3.348,4.604,11.72,6.077,13.394,4.294c1.674-1.783-4.604-226.558-2.93-230.325
					C574.281,1383.057,576.859,1367.264,571.77,1371.964z"/>
			</g>
		</g>
	</g>
	<g>
		<g>
			<g>
				<g>
					<path style="fill:#258D8C;" d="M2691.074,850.888c0,0-7.852,64.781-17.667,94.227c-9.815,29.446-19.136,57.583-11.858,128.254
						c7.278,70.67,11.798,76.559,13.464,94.881c1.666,18.322-0.951,95.553,2.974,108.305
						c3.926,12.751-22.902,101.089-24.865,139.041c-0.59,11.404-1.651,24.405-2.601,37.668h4.804
						c1.582-16.169,4.693-34.031,10.23-52.718c20.939-70.671,11.778-79.814,47.114-123.991
						c35.335-44.178,37.952-135.788,37.952-135.788s17.013-104.042,0-149.847C2733.608,945.116,2732.299,899.311,2691.074,850.888z"
						/>
				</g>
			</g>
		</g>
		<g>
			<g>
				<g>
					<path style="fill:#258D8C;" d="M2580.489,1210.456c16.686-35.335-7.853-126.618,15.902-167.313
						c23.754-40.696,11.581-104.571,6.117-129.109c-5.464-24.538,0.556-41.224,5.464-67.094c4.908-25.87-5.464-63.449-5.464-63.449
						c-0.884,32.063-25.291,75.905-42.958,104.042c-17.668,28.137-51.04,104.697-47.114,139.378
						c3.926,34.681,1.963,37.298,1.963,37.298c-12.432,46.459,0,59.546-3.926,109.931c-3.926,50.386,28.137,46.459,29.446,78.523
						c1.308,32.063,43.188,86.375,62.589,124.982c10.091,20.08,13.817,50.778,15.071,75.62h15.588
						c-6.029-62.874-31.54-106.637-46.789-141.71C2566.747,1266.403,2563.802,1245.791,2580.489,1210.456z"/>
				</g>
			</g>
		</g>
		<g>
			<g>
				<g>
					<path style="fill:#7FC6A6;" d="M2803.662,1113.155c-3.997,17.019-4.843,28.766-14.773,42.181
						c-9.931,13.415-34.537,48.888-31.096,79.983c3.441,31.095-36.056,79.863-35.458,105.801s-6.746,37.65-30.828,59.751
						c-18.708,17.168-45.984,36.844-66.592,73.366l9.458,4.202c7.458-14.734,17.995-32.355,29.531-41.818
						c22.179-18.193,62.23-39.855,71.669-58.957c9.438-19.101,27.833-8.074,39.034-39.703
						c11.201-31.628,22.273-36.217,27.255-67.757c0,0-0.486-2.117,11.246-22.1c11.732-19.983,12.124-75.431,8.99-97.266
						c-3.134-21.834-6.123-55.014,1.985-74.706C2824.082,1076.132,2807.658,1096.136,2803.662,1113.155z"/>
				</g>
			</g>
		</g>
		<g>
			<g>
				<g>
					<path style="fill:#7FC6A6;" d="M2558.324,1400.871c-24.083-22.102-31.426-33.814-30.828-59.751
						c0.598-25.937-38.899-74.706-35.458-105.801c3.441-31.095-21.165-66.568-31.095-79.983
						c-9.93-13.415-10.776-25.162-14.773-42.181c-3.997-17.019-20.421-37.023-20.421-37.023c8.108,19.692,5.119,52.872,1.985,74.706
						c-3.134,21.835-2.742,77.283,8.99,97.266c11.732,19.983,11.246,22.1,11.246,22.1c4.982,31.54,16.053,36.128,27.255,67.757
						c11.201,31.629,29.597,20.602,39.034,39.703c9.438,19.101,49.489,40.763,71.668,58.957
						c11.536,9.463,22.073,27.084,29.53,41.818l9.458-4.202C2604.307,1437.715,2577.031,1418.04,2558.324,1400.871z"/>
				</g>
			</g>
		</g>
		<g>
			<g>
				<g>
					<path d="M2569.797,1409.66c-3.826-3.328-7.437-6.472-10.783-9.541c-23.407-21.486-31.094-33.02-30.495-58.975
						c0.28-12.12-7.88-28.841-16.516-46.546c-10.217-20.941-20.783-42.596-18.949-59.166c3.059-27.636-15.327-59.141-31.288-80.705
						c-7.924-10.705-9.982-20.395-12.589-32.664c-0.613-2.891-1.256-5.921-2.013-9.141c-4.003-17.055-19.946-36.614-20.623-37.439
						l-4.341-5.285l2.604,6.324c6.093,14.798,6.756,40.447,1.918,74.17c-3.35,23.342-2.433,78.252,9.119,97.93
						c10.771,18.346,11.101,21.434,11.11,21.558l1.019,0.024l-0.997-0.228l1.993,0.456c0.366-1.596-3.775-9.924-11.36-22.845
						c-11.329-19.294-12.173-73.513-8.859-96.603c4.359-30.389,4.353-53.625-0.004-69.23c5.062,6.97,13.717,20.088,16.43,31.636
						c0.751,3.204,1.393,6.22,2.004,9.097c2.657,12.513,4.754,22.397,12.942,33.46c22.579,30.499,33.264,57.908,30.901,79.262
						c-1.898,17.157,8.799,39.083,19.143,60.287c8.526,17.475,16.578,33.981,16.31,45.601c-0.617,26.748,7.237,38.573,31.158,60.529
						c3.364,3.088,6.988,6.24,10.823,9.579c17.071,14.856,38.272,33.306,55.016,62.558l-7.541,3.35
						c-7.001-13.714-17.643-31.676-29.353-41.282l-1.298,1.582c11.684,9.585,22.365,27.853,29.267,41.49l0.439,0.869l11.376-5.056
						l-0.553-0.981C2608.808,1443.608,2587.176,1424.785,2569.797,1409.66z"/>
				</g>
			</g>
		</g>
		<g>
			<g>
				<g>
					<path d="M2596.329,1330.894c-3.232-6.925-6.284-13.469-9.013-19.748c-19.151-44.045-22.688-64.708-5.903-100.253
						c7.743-16.396,6.742-44.34,5.685-73.927c-1.259-35.147-2.559-71.492,10.176-93.309c16.642-28.511,18.798-73.411,6.232-129.845
						c-4.385-19.692-1.278-34.338,2.653-52.882c0.929-4.379,1.888-8.907,2.816-13.801c4.896-25.805-5.377-63.533-5.481-63.911
						l-1.822-6.594l-0.188,6.838c-0.665,24.191-15.467,59.99-42.802,103.527c-18.851,30.028-51.116,106.002-47.263,140.037
						l2.033-0.232c-3.805-33.591,28.244-108.904,46.963-138.718c25.559-40.711,39.878-73.635,42.642-98.019
						c2.667,11.766,7.527,37.615,3.907,56.693c-0.925,4.87-1.881,9.389-2.808,13.758c-3.983,18.785-7.13,33.625-2.649,53.749
						c12.451,55.922,10.375,100.313-6.001,128.371c-13.035,22.329-11.722,58.973-10.456,94.412
						c1.049,29.331,2.042,57.035-5.489,72.98c-17.123,36.264-13.552,57.259,5.875,101.943c2.743,6.304,5.799,12.859,9.037,19.798
						c14.483,31.041,32.479,69.616,37.563,120.483h-13.49c-1.222-23.154-4.85-54.608-15.128-75.057l-1.826,0.919
						c10.261,20.417,13.799,52.171,14.962,75.213l0.048,0.971h17.687l-0.106-1.12
						C2629.221,1401.395,2610.983,1362.305,2596.329,1330.894z"/>
				</g>
			</g>
		</g>
		<g>
			<g>
				<g>
					<path style="fill:#7FC6A6;" d="M2562.778,998.729c0,0-13.087,58.892-3.271,90.955c9.815,32.064,21.594,56.929,20.939,105.351
						c-0.655,48.422,37.298,66.744,36.644,93.573c-0.655,26.828,7.852,55.62,15.05,77.214c4.556,13.67,2.034,51.725,1.228,87.442
						h10.531c2.652-26.247,5.558-64.115,4.599-80.899c-1.309-22.903,9.161-41.225,10.47-81.14
						c1.308-39.915,9.815-75.905-7.853-126.29C2633.448,1114.55,2636.72,1054.349,2562.778,998.729z"/>
				</g>
			</g>
		</g>
		<g>
			<g>
				<g>
					<path d="M2651.464,1339.322c-2.481,11.768-4.626,21.933-3.987,33.1c0.939,16.426-1.818,53.032-4.503,79.82h-8.56
						c0.166-7.047,0.394-14.175,0.617-21.178c0.901-28.052,1.75-54.55-1.921-65.565c-7.321-21.964-15.641-50.547-14.998-76.867
						c0.287-11.828-6.582-21.848-14.535-33.45c-10.537-15.37-22.479-32.788-22.109-60.133c0.539-40.036-7.341-63.913-15.683-89.192
						c-1.756-5.318-3.572-10.817-5.302-16.472c-8.738-28.54,0.997-79.319,2.96-88.869c55.569,42.365,66.753,88.151,76.634,128.587
						c3.086,12.629,6.001,24.558,10.074,36.17l1.93-0.675c-4.039-11.521-6.942-23.402-10.016-35.981
						c-10.036-41.076-21.412-87.634-78.673-130.706l-1.269-0.955l-0.345,1.55c-0.132,0.591-13.031,59.526-3.252,91.477
						c1.738,5.677,3.558,11.187,5.316,16.514c8.288,25.111,16.116,48.831,15.581,88.523c-0.38,27.994,11.758,45.699,22.467,61.318
						c7.753,11.31,14.448,21.076,14.177,32.245c-0.65,26.634,7.729,55.441,15.101,77.562c3.556,10.667,2.713,36.987,1.82,64.852
						c-0.236,7.357-0.476,14.85-0.644,22.243l-0.024,1.047h12.503l0.092-0.921c2.72-26.935,5.559-64.328,4.602-81.06
						c-0.621-10.897,1.496-20.937,3.947-32.563c2.739-12.986,5.843-27.707,6.526-48.485l-2.045-0.068
						C2657.271,1311.79,2654.187,1326.416,2651.464,1339.322z"/>
				</g>
			</g>
		</g>
		<g>
			<g>
				<g>
					<path d="M2739.56,951.283c-8.911-32.602-18.126-66.314-47.707-101.058l-1.514-1.778l-0.28,2.318
						c-0.08,0.647-7.952,65.017-17.623,94.026c-9.884,29.652-19.221,57.658-11.906,128.682l2.033-0.208
						c-7.267-70.589,2-98.391,11.814-127.827c8.681-26.049,15.903-80.233,17.419-92.102c28.102,33.773,37.089,66.661,45.791,98.487
						c3.535,12.934,7.191,26.308,12.073,39.452c16.724,45.026,0.12,148.291-0.064,149.463c-0.026,0.913-3.008,91.769-37.729,135.177
						c-24.638,30.805-27.894,45.217-34.382,73.933c-2.895,12.811-6.496,28.751-12.912,50.409
						c-4.956,16.726-8.378,34.213-10.176,51.985h-2.779c0.236-3.254,0.476-6.492,0.713-9.691c0.711-9.566,1.382-18.604,1.81-26.903
						c0.973-18.775,8.16-50.393,14.502-78.291c6.64-29.205,12.375-54.428,10.32-61.104l-1.954,0.603
						c1.894,6.153-4.059,32.331-10.359,60.048c-6.361,27.978-13.57,59.688-14.551,78.641c-0.427,8.276-1.098,17.301-1.808,26.856
						c-0.266,3.56-0.533,7.165-0.793,10.791l-0.078,1.097h6.83l0.092-0.923c1.756-17.962,5.186-35.635,10.192-52.529
						c6.436-21.72,10.046-37.698,12.947-50.537c6.62-29.298,9.64-42.67,33.985-73.105c35.141-43.937,38.15-135.477,38.162-136.259
						c0.172-1.045,16.861-104.839-0.05-150.37C2746.729,977.503,2743.086,964.174,2739.56,951.283z"/>
				</g>
			</g>
		</g>
		<g>
			<g>
				<g>
					<path d="M2802.667,1112.922c-0.757,3.22-1.4,6.252-2.015,9.145c-2.605,12.267-4.661,21.957-12.587,32.661
						c-15.961,21.564-34.347,53.068-31.288,80.705l2.033-0.224c-2.363-21.354,8.322-48.763,30.901-79.262
						c8.188-11.062,10.285-20.945,12.942-33.456c0.611-2.876,1.252-5.895,2.004-9.101c2.713-11.548,11.368-24.666,16.432-31.636
						c-4.361,15.609-4.365,38.845-0.004,69.23c3.314,23.092,2.465,77.311-8.861,96.603c-7.125,12.138-11.212,20.222-11.378,22.481
						c-2.896,18.332-7.927,27.569-13.751,38.261c-4.125,7.575-8.801,16.159-13.452,29.291c-6.272,17.713-14.656,21.65-22.764,25.457
						c-6.188,2.907-12.033,5.653-16.222,14.133c-6.271,12.691-26.4,26.598-45.865,40.046c-9.43,6.514-18.336,12.667-25.537,18.574
						c-11.706,9.602-22.349,27.567-29.353,41.282l-7.539-3.35c16.741-29.253,37.942-47.702,55.015-62.558
						c3.835-3.338,7.457-6.49,10.821-9.579l-1.382-1.506c-3.344,3.068-6.958,6.213-10.783,9.541
						c-17.379,15.125-39.009,33.949-56.008,64.074l-0.553,0.981l11.374,5.056l0.439-0.869c6.906-13.639,17.589-31.911,29.267-41.49
						c7.135-5.853,16.007-11.983,25.401-18.471c19.68-13.598,40.03-27.657,46.536-40.823c3.873-7.841,9.149-10.318,15.26-13.188
						c8.092-3.799,17.263-8.108,23.823-26.626c4.594-12.978,9.229-21.488,13.318-28.995c5.917-10.865,11.029-20.25,13.981-38.945
						l0.03-0.196l-0.012-0.056c0.088-0.529,1.041-4.357,11.101-21.49c11.55-19.674,12.469-74.586,9.121-97.93
						c-4.84-33.717-4.177-59.366,1.916-74.17l2.603-6.324l-4.339,5.285C2822.614,1076.308,2806.67,1095.867,2802.667,1112.922z"/>
				</g>
			</g>
		</g>
		<g>
			<g>
				<g>
					<g>
						<g>
							<path style="fill:#603655;" d="M2510.07,1373.623c0,0,4.363,239.683,68.561,234.061h50.482h8.106h50.483
								c64.198,5.622,68.561-234.061,68.561-234.061C2695.512,1364.442,2570.821,1364.442,2510.07,1373.623z"/>
						</g>
					</g>
				</g>
			</g>
		</g>
	</g>
</g>
</svg>
